<?xml version="1.0" encoding="UTF-8" standalone="no"?>
<svg
   xmlns:dc="http://purl.org/dc/elements/1.1/"
   xmlns:cc="http://creativecommons.org/ns#"
   xmlns:rdf="http://www.w3.org/1999/02/22-rdf-syntax-ns#"
   xmlns:svg="http://www.w3.org/2000/svg"
   xmlns="http://www.w3.org/2000/svg"
   xmlns:sodipodi="http://sodipodi.sourceforge.net/DTD/sodipodi-0.dtd"
   xmlns:inkscape="http://www.inkscape.org/namespaces/inkscape"
   sodipodi:docname="kontrol_logo_256x128.svg"
   inkscape:version="1.0 (4035a4fb49, 2020-05-01)"
   width="256"
   height="128"
   viewBox="0 0 256 128"
   version="1.1"
   id="SVGRoot">
  <defs
     id="defs1293">
    <marker
       inkscape:isstock="true"
       style="overflow:visible"
       id="marker1243"
       refX="0"
       refY="0"
       orient="auto"
       inkscape:stockid="TriangleOutM">
      <path
         transform="scale(0.4)"
         style="fill:#000000;fill-opacity:1;fill-rule:evenodd;stroke:#000000;stroke-width:1pt;stroke-opacity:1"
         d="M 5.77,0 -2.88,5 V -5 Z"
         id="path1241" />
    </marker>
    <marker
       inkscape:stockid="TriangleOutM"
       orient="auto"
       refY="0"
       refX="0"
       id="marker1243-6"
       style="overflow:visible"
       inkscape:isstock="true">
      <path
         id="path1241-7"
         d="M 5.77,0 -2.88,5 V -5 Z"
         style="fill:#000000;fill-opacity:1;fill-rule:evenodd;stroke:#000000;stroke-width:1pt;stroke-opacity:1"
         transform="scale(0.4)" />
    </marker>
    <marker
       inkscape:stockid="TriangleOutM"
       orient="auto"
       refY="0"
       refX="0"
       id="marker1243-3"
       style="overflow:visible"
       inkscape:isstock="true">
      <path
         id="path1241-5"
         d="M 5.77,0 -2.88,5 V -5 Z"
         style="fill:#000000;fill-opacity:1;fill-rule:evenodd;stroke:#000000;stroke-width:1pt;stroke-opacity:1"
         transform="scale(0.4)" />
    </marker>
  </defs>
  <sodipodi:namedview
     fit-margin-bottom="0"
     fit-margin-right="0"
     fit-margin-left="0"
     fit-margin-top="0"
     inkscape:window-maximized="0"
     inkscape:window-y="16"
     inkscape:window-x="16"
     inkscape:window-height="1374"
     inkscape:window-width="1774"
     showgrid="false"
     inkscape:document-rotation="0"
     inkscape:current-layer="layer1"
     inkscape:document-units="px"
     inkscape:cy="78.977282"
     inkscape:cx="121.00168"
     inkscape:zoom="4.3210325"
     inkscape:pageshadow="2"
     inkscape:pageopacity="0.0"
     borderopacity="1.0"
     bordercolor="#666666"
     pagecolor="#ffffff"
     id="base" />
  <metadata
     id="metadata1296">
    <rdf:RDF>
      <cc:Work
         rdf:about="">
        <dc:format>image/svg+xml</dc:format>
        <dc:type
           rdf:resource="http://purl.org/dc/dcmitype/StillImage" />
        <dc:title></dc:title>
      </cc:Work>
    </rdf:RDF>
  </metadata>
  <g
     transform="translate(-14.749288,-16.927734)"
     id="layer1"
     inkscape:groupmode="layer"
     inkscape:label="Layer 1">
    <g
       transform="matrix(2.6292115,0,0,2.6292115,-24.02971,-3.207034)"
       id="g2595">
      <path
         id="path2525"
         style="color:#000000;font-style:normal;font-variant:normal;font-weight:normal;font-stretch:normal;font-size:medium;line-height:normal;font-family:sans-serif;font-variant-ligatures:normal;font-variant-position:normal;font-variant-caps:normal;font-variant-numeric:normal;font-variant-alternates:normal;font-variant-east-asian:normal;font-feature-settings:normal;font-variation-settings:normal;text-indent:0;text-align:start;text-decoration:none;text-decoration-line:none;text-decoration-style:solid;text-decoration-color:#000000;letter-spacing:normal;word-spacing:normal;text-transform:none;writing-mode:lr-tb;direction:ltr;text-orientation:mixed;dominant-baseline:auto;baseline-shift:baseline;text-anchor:start;white-space:normal;shape-padding:0;shape-margin:0;inline-size:0;clip-rule:nonzero;display:inline;overflow:visible;visibility:visible;isolation:auto;mix-blend-mode:normal;color-interpolation:sRGB;color-interpolation-filters:linearRGB;solid-color:#000000;solid-opacity:1;vector-effect:none;fill:#000000;fill-opacity:1;fill-rule:nonzero;stroke:none;stroke-width:1;stroke-linecap:butt;stroke-linejoin:miter;stroke-miterlimit:4;stroke-dasharray:none;stroke-dashoffset:0;stroke-opacity:1;color-rendering:auto;image-rendering:auto;shape-rendering:auto;text-rendering:auto;enable-background:accumulate;stop-color:#000000"
         d="m 44.902344,16.927734 c -2.972688,0 -5.275391,2.879064 -5.275391,6.328125 v 3.296875 h 1 v -3.296875 c 0,-3.00945 1.957942,-5.328125 4.275391,-5.328125 h 38.195312 c 2.317449,0 4.275391,2.318675 4.275391,5.328125 v 3.296875 h 1 v -3.296875 c 0,-3.449061 -2.302703,-6.328125 -5.275391,-6.328125 z m -5.275391,20.496094 v 3.320313 c 0,3.449061 2.302703,6.328125 5.275391,6.328125 h 38.195312 c 2.972688,0 5.275391,-2.879064 5.275391,-6.328125 v -3.320313 h -1 v 3.320313 c 0,3.00945 -1.957942,5.328125 -4.275391,5.328125 H 44.902344 c -2.317449,0 -4.275391,-2.318675 -4.275391,-5.328125 v -3.320313 z" />
      <g
         id="g2527"
         transform="translate(-5.278056)">
        <path
           id="path2539"
           d="m 20.027344,31.5 v 1 h 16.759765 v -1 z"
           style="color:#000000;font-style:normal;font-variant:normal;font-weight:normal;font-stretch:normal;font-size:medium;line-height:normal;font-family:sans-serif;font-variant-ligatures:normal;font-variant-position:normal;font-variant-caps:normal;font-variant-numeric:normal;font-variant-alternates:normal;font-variant-east-asian:normal;font-feature-settings:normal;font-variation-settings:normal;text-indent:0;text-align:start;text-decoration:none;text-decoration-line:none;text-decoration-style:solid;text-decoration-color:#000000;letter-spacing:normal;word-spacing:normal;text-transform:none;writing-mode:lr-tb;direction:ltr;text-orientation:mixed;dominant-baseline:auto;baseline-shift:baseline;text-anchor:start;white-space:normal;shape-padding:0;shape-margin:0;inline-size:0;clip-rule:nonzero;display:inline;overflow:visible;visibility:visible;isolation:auto;mix-blend-mode:normal;color-interpolation:sRGB;color-interpolation-filters:linearRGB;solid-color:#000000;solid-opacity:1;vector-effect:none;fill:#000000;fill-opacity:1;fill-rule:nonzero;stroke:none;stroke-width:1;stroke-linecap:butt;stroke-linejoin:miter;stroke-miterlimit:4;stroke-dasharray:none;stroke-dashoffset:0;stroke-opacity:1;color-rendering:auto;image-rendering:auto;shape-rendering:auto;text-rendering:auto;enable-background:accumulate;stop-color:#000000;stop-opacity:1" />
        <g
           id="g2529">
          <g
             style="opacity:1"
             id="g2533">
            <path
               id="path2535"
               d="m 39.094685,32.000001 -3.46,2 v -4 z"
               style="color:#000000;font-style:normal;font-variant:normal;font-weight:normal;font-stretch:normal;font-size:medium;line-height:normal;font-family:sans-serif;font-variant-ligatures:normal;font-variant-position:normal;font-variant-caps:normal;font-variant-numeric:normal;font-variant-alternates:normal;font-variant-east-asian:normal;font-feature-settings:normal;font-variation-settings:normal;text-indent:0;text-align:start;text-decoration:none;text-decoration-line:none;text-decoration-style:solid;text-decoration-color:#000000;letter-spacing:normal;word-spacing:normal;text-transform:none;writing-mode:lr-tb;direction:ltr;text-orientation:mixed;dominant-baseline:auto;baseline-shift:baseline;text-anchor:start;white-space:normal;shape-padding:0;shape-margin:0;inline-size:0;clip-rule:nonzero;display:inline;overflow:visible;visibility:visible;isolation:auto;mix-blend-mode:normal;color-interpolation:sRGB;color-interpolation-filters:linearRGB;solid-color:#000000;solid-opacity:1;vector-effect:none;fill:#000000;fill-opacity:1;fill-rule:evenodd;stroke:none;stroke-width:0.4pt;stroke-linecap:butt;stroke-linejoin:miter;stroke-miterlimit:4;stroke-dasharray:none;stroke-dashoffset:0;stroke-opacity:1;color-rendering:auto;image-rendering:auto;shape-rendering:auto;text-rendering:auto;enable-background:accumulate;stop-color:#000000;stop-opacity:1" />
            <path
               id="path2537"
               d="m 35.367188,29.537109 v 4.925782 L 39.626953,32 39.228516,31.769531 Z M 35.900391,30.460938 38.5625,32 35.900391,33.539062 Z"
               style="color:#000000;font-style:normal;font-variant:normal;font-weight:normal;font-stretch:normal;font-size:medium;line-height:normal;font-family:sans-serif;font-variant-ligatures:normal;font-variant-position:normal;font-variant-caps:normal;font-variant-numeric:normal;font-variant-alternates:normal;font-variant-east-asian:normal;font-feature-settings:normal;font-variation-settings:normal;text-indent:0;text-align:start;text-decoration:none;text-decoration-line:none;text-decoration-style:solid;text-decoration-color:#000000;letter-spacing:normal;word-spacing:normal;text-transform:none;writing-mode:lr-tb;direction:ltr;text-orientation:mixed;dominant-baseline:auto;baseline-shift:baseline;text-anchor:start;white-space:normal;shape-padding:0;shape-margin:0;inline-size:0;clip-rule:nonzero;display:inline;overflow:visible;visibility:visible;isolation:auto;mix-blend-mode:normal;color-interpolation:sRGB;color-interpolation-filters:linearRGB;solid-color:#000000;solid-opacity:1;vector-effect:none;fill:#000000;fill-opacity:1;fill-rule:evenodd;stroke:none;stroke-width:0.4pt;stroke-linecap:butt;stroke-linejoin:miter;stroke-miterlimit:4;stroke-dasharray:none;stroke-dashoffset:0;stroke-opacity:1;color-rendering:auto;image-rendering:auto;shape-rendering:auto;text-rendering:auto;enable-background:accumulate;stop-color:#000000;stop-opacity:1" />
          </g>
        </g>
      </g>
      <g
         id="g2541"
         transform="translate(4.1442217)">
        <path
           id="path2553"
           d="m 88.373047,31.5 v 1 h 16.757813 v -1 z"
           style="color:#000000;font-style:normal;font-variant:normal;font-weight:normal;font-stretch:normal;font-size:medium;line-height:normal;font-family:sans-serif;font-variant-ligatures:normal;font-variant-position:normal;font-variant-caps:normal;font-variant-numeric:normal;font-variant-alternates:normal;font-variant-east-asian:normal;font-feature-settings:normal;font-variation-settings:normal;text-indent:0;text-align:start;text-decoration:none;text-decoration-line:none;text-decoration-style:solid;text-decoration-color:#000000;letter-spacing:normal;word-spacing:normal;text-transform:none;writing-mode:lr-tb;direction:ltr;text-orientation:mixed;dominant-baseline:auto;baseline-shift:baseline;text-anchor:start;white-space:normal;shape-padding:0;shape-margin:0;inline-size:0;clip-rule:nonzero;display:inline;overflow:visible;visibility:visible;isolation:auto;mix-blend-mode:normal;color-interpolation:sRGB;color-interpolation-filters:linearRGB;solid-color:#000000;solid-opacity:1;vector-effect:none;fill:#000000;fill-opacity:1;fill-rule:nonzero;stroke:none;stroke-width:1;stroke-linecap:butt;stroke-linejoin:miter;stroke-miterlimit:4;stroke-dasharray:none;stroke-dashoffset:0;stroke-opacity:1;color-rendering:auto;image-rendering:auto;shape-rendering:auto;text-rendering:auto;enable-background:accumulate;stop-color:#000000;stop-opacity:1" />
        <g
           id="g2543">
          <g
             style="opacity:1"
             id="g2547">
            <path
               id="path2549"
               d="m 107.43914,32.000001 -3.46,2 v -4 z"
               style="color:#000000;font-style:normal;font-variant:normal;font-weight:normal;font-stretch:normal;font-size:medium;line-height:normal;font-family:sans-serif;font-variant-ligatures:normal;font-variant-position:normal;font-variant-caps:normal;font-variant-numeric:normal;font-variant-alternates:normal;font-variant-east-asian:normal;font-feature-settings:normal;font-variation-settings:normal;text-indent:0;text-align:start;text-decoration:none;text-decoration-line:none;text-decoration-style:solid;text-decoration-color:#000000;letter-spacing:normal;word-spacing:normal;text-transform:none;writing-mode:lr-tb;direction:ltr;text-orientation:mixed;dominant-baseline:auto;baseline-shift:baseline;text-anchor:start;white-space:normal;shape-padding:0;shape-margin:0;inline-size:0;clip-rule:nonzero;display:inline;overflow:visible;visibility:visible;isolation:auto;mix-blend-mode:normal;color-interpolation:sRGB;color-interpolation-filters:linearRGB;solid-color:#000000;solid-opacity:1;vector-effect:none;fill:#000000;fill-opacity:1;fill-rule:evenodd;stroke:none;stroke-width:0.4pt;stroke-linecap:butt;stroke-linejoin:miter;stroke-miterlimit:4;stroke-dasharray:none;stroke-dashoffset:0;stroke-opacity:1;color-rendering:auto;image-rendering:auto;shape-rendering:auto;text-rendering:auto;enable-background:accumulate;stop-color:#000000;stop-opacity:1" />
            <path
               id="path2551"
               d="m 103.71289,29.537109 v 4.925782 L 107.97266,32 107.57227,31.769531 Z m 0.5332,0.923829 L 106.9082,32 l -2.66211,1.539062 z"
               style="color:#000000;font-style:normal;font-variant:normal;font-weight:normal;font-stretch:normal;font-size:medium;line-height:normal;font-family:sans-serif;font-variant-ligatures:normal;font-variant-position:normal;font-variant-caps:normal;font-variant-numeric:normal;font-variant-alternates:normal;font-variant-east-asian:normal;font-feature-settings:normal;font-variation-settings:normal;text-indent:0;text-align:start;text-decoration:none;text-decoration-line:none;text-decoration-style:solid;text-decoration-color:#000000;letter-spacing:normal;word-spacing:normal;text-transform:none;writing-mode:lr-tb;direction:ltr;text-orientation:mixed;dominant-baseline:auto;baseline-shift:baseline;text-anchor:start;white-space:normal;shape-padding:0;shape-margin:0;inline-size:0;clip-rule:nonzero;display:inline;overflow:visible;visibility:visible;isolation:auto;mix-blend-mode:normal;color-interpolation:sRGB;color-interpolation-filters:linearRGB;solid-color:#000000;solid-opacity:1;vector-effect:none;fill:#000000;fill-opacity:1;fill-rule:evenodd;stroke:none;stroke-width:0.4pt;stroke-linecap:butt;stroke-linejoin:miter;stroke-miterlimit:4;stroke-dasharray:none;stroke-dashoffset:0;stroke-opacity:1;color-rendering:auto;image-rendering:auto;shape-rendering:auto;text-rendering:auto;enable-background:accumulate;stop-color:#000000;stop-opacity:1" />
          </g>
        </g>
      </g>
      <g
         aria-label="Kontrol"
         id="text2150"
         style="font-size:14.6667px;line-height:1.25;font-family:'Source Code Pro';-inkscape-font-specification:'Source Code Pro'">
        <path
           d="m 41.280219,28.118481 q 0.24349,0 0.343751,0.114584 0.107422,0.107422 0.107422,0.372397 0,0.264974 -0.107422,0.379558 -0.100261,0.107422 -0.343751,0.107422 h -0.43685 l -3.000658,2.900397 q 0.05729,-0.0072 0.171875,-0.0072 0.938154,0 1.496749,0.716147 0.222005,0.286459 0.386719,0.644533 0.171876,0.358074 0.372397,0.895184 0.02865,0.07161 0.14323,0.379559 0.121745,0.300782 0.236328,0.508464 0.279298,0.515626 0.644533,0.515626 h 0.200521 q 0.24349,0 0.343751,0.114584 0.107422,0.107422 0.107422,0.372397 0,0.264974 -0.107422,0.379558 -0.100261,0.107422 -0.343751,0.107422 h -0.587241 q -0.723309,0 -1.231773,-0.995445 -0.179037,-0.358074 -0.422527,-0.981122 -0.164714,-0.43685 -0.300782,-0.737632 -0.136068,-0.300782 -0.300782,-0.53711 -0.171876,-0.243491 -0.43685,-0.372397 -0.257813,-0.128907 -0.587241,-0.128907 -0.300782,0 -0.58008,0.107422 -0.279297,0.107423 -0.494141,0.315105 l -0.214845,0.207683 v 2.148442 h 1.160159 q 0.24349,0 0.343751,0.114584 0.107422,0.107422 0.107422,0.372397 0,0.264974 -0.107422,0.379558 -0.100261,0.107422 -0.343751,0.107422 h -3.036465 q -0.24349,0 -0.350912,-0.107422 -0.100261,-0.114584 -0.100261,-0.379558 0,-0.264975 0.100261,-0.372397 0.107422,-0.114584 0.350912,-0.114584 h 0.802085 v -6.552749 h -0.802085 q -0.24349,0 -0.350912,-0.107422 -0.100261,-0.114584 -0.100261,-0.379558 0,-0.264975 0.100261,-0.372397 0.107422,-0.114584 0.350912,-0.114584 h 2.535162 q 0.24349,0 0.343751,0.114584 0.107422,0.107422 0.107422,0.372397 0,0.264974 -0.107422,0.379558 -0.100261,0.107422 -0.343751,0.107422 h -0.658856 v 3.072273 l 3.136726,-3.072273 h -0.515626 q -0.24349,0 -0.350912,-0.107422 -0.100261,-0.114584 -0.100261,-0.379558 0,-0.264975 0.100261,-0.372397 0.107422,-0.114584 0.350912,-0.114584 z"
           style="font-style:normal;font-variant:normal;font-weight:normal;font-stretch:normal;font-family:'Courier Prime';-inkscape-font-specification:'Courier Prime'"
           id="path2354" />
        <path
           d="m 46.629841,29.844397 q 0.981122,0 1.768884,0.444011 0.787763,0.444012 1.231774,1.238935 0.451173,0.787763 0.451173,1.783208 0,0.995445 -0.451173,1.790368 -0.444011,0.787763 -1.231774,1.231774 -0.787762,0.444012 -1.768884,0.444012 -0.981122,0 -1.768884,-0.444012 -0.787762,-0.444011 -1.238935,-1.231774 -0.444012,-0.794923 -0.444012,-1.790368 0,-0.995445 0.444012,-1.783208 0.451173,-0.794923 1.238935,-1.238935 0.787762,-0.444011 1.768884,-0.444011 z m 0,1.059898 q -0.694663,0 -1.224612,0.307944 -0.522788,0.300782 -0.809247,0.852215 -0.286459,0.544272 -0.286459,1.246097 0,0.701824 0.286459,1.253258 0.286459,0.544272 0.809247,0.852215 0.529949,0.300782 1.224612,0.300782 0.694663,0 1.217451,-0.300782 0.529949,-0.307943 0.816408,-0.852215 0.286459,-0.551434 0.286459,-1.253258 0,-0.701825 -0.286459,-1.246097 -0.286459,-0.551433 -0.816408,-0.852215 -0.522788,-0.307944 -1.217451,-0.307944 z"
           style="font-style:normal;font-variant:normal;font-weight:normal;font-stretch:normal;font-family:'Courier Prime';-inkscape-font-specification:'Courier Prime'"
           id="path2356" />
        <path
           d="m 56.233379,29.844397 q 0.651694,0 1.131513,0.286459 0.479819,0.279297 0.737632,0.809247 0.257813,0.529949 0.257813,1.238935 v 3.466153 h 0.587241 q 0.24349,0 0.343751,0.114584 0.107422,0.107422 0.107422,0.372397 0,0.264974 -0.107422,0.379558 -0.100261,0.107422 -0.343751,0.107422 H 56.62726 q -0.24349,0 -0.350912,-0.107422 -0.100261,-0.114584 -0.100261,-0.379558 0,-0.264975 0.100261,-0.372397 0.107422,-0.114584 0.350912,-0.114584 h 0.658856 V 32.28646 q 0,-0.637371 -0.29362,-1.009768 -0.293621,-0.372397 -0.866539,-0.372397 -0.608725,0 -1.138674,0.350912 -0.522788,0.350913 -0.837893,0.9668 -0.315105,0.615886 -0.315105,1.375003 v 2.048181 h 0.658856 q 0.24349,0 0.343751,0.114584 0.107422,0.107422 0.107422,0.372397 0,0.264974 -0.107422,0.379558 -0.100261,0.107422 -0.343751,0.107422 h -2.320318 q -0.24349,0 -0.350912,-0.107422 -0.100261,-0.114584 -0.100261,-0.379558 0,-0.264975 0.100261,-0.372397 0.107422,-0.114584 0.350912,-0.114584 h 0.587241 V 30.97591 h -0.73047 q -0.243491,0 -0.350913,-0.107422 -0.10026,-0.114584 -0.10026,-0.379558 0,-0.264975 0.10026,-0.372397 0.107422,-0.114584 0.350913,-0.114584 h 1.281904 q 0.24349,0 0.34375,0.114584 0.107422,0.107422 0.107422,0.372397 v 0.859377 q 0.472658,-0.730471 1.102868,-1.11719 0.637371,-0.38672 1.367841,-0.38672 z"
           style="font-style:normal;font-variant:normal;font-weight:normal;font-stretch:normal;font-family:'Courier Prime';-inkscape-font-specification:'Courier Prime'"
           id="path2358" />
        <path
           d="m 63.101233,27.960929 q 0.293621,0 0.415366,0.107422 0.121745,0.107422 0.121745,0.358074 v 2.148442 h 2.943366 q 0.24349,0 0.343751,0.114584 0.107422,0.107422 0.107422,0.372397 0,0.264974 -0.107422,0.379558 -0.100261,0.107422 -0.343751,0.107422 h -2.943366 v 2.606777 q 0,0.816408 0.279297,1.195966 0.286459,0.379558 0.988284,0.379558 0.479819,0 1.009768,-0.19336 0.529949,-0.193359 1.024091,-0.515626 0.10026,-0.07162 0.222005,-0.07162 0.24349,0 0.415366,0.329428 0.0931,0.186199 0.0931,0.322267 0,0.229167 -0.236329,0.372396 -0.558595,0.350913 -1.246096,0.58008 -0.687502,0.222006 -1.281904,0.222006 -1.217451,0 -1.783208,-0.63021 -0.558595,-0.637372 -0.558595,-1.897791 v -2.699876 h -1.453779 q -0.24349,0 -0.350912,-0.107422 -0.100261,-0.114584 -0.100261,-0.379558 0,-0.264975 0.100261,-0.372397 0.107422,-0.114584 0.350912,-0.114584 h 1.453779 V 28.42642 q 0,-0.250652 0.121746,-0.358074 0.121745,-0.107422 0.415365,-0.107422 z"
           style="font-style:normal;font-variant:normal;font-weight:normal;font-stretch:normal;font-family:'Courier Prime';-inkscape-font-specification:'Courier Prime'"
           id="path2360" />
        <path
           d="m 75.204127,29.844397 q 0.558595,0 1.045575,0.286459 0.286459,0.171875 0.286459,0.444011 0,0.128907 -0.06445,0.300782 -0.150391,0.408204 -0.415366,0.408204 -0.107422,0 -0.200521,-0.05729 -0.350912,-0.19336 -0.751955,-0.19336 -0.644533,0 -1.296227,0.451173 -0.651694,0.444011 -1.074221,1.188804 -0.415365,0.744794 -0.415365,1.582686 v 1.389326 h 2.413417 q 0.24349,0 0.34375,0.114584 0.107422,0.107422 0.107422,0.372397 0,0.264974 -0.107422,0.379558 -0.10026,0.107422 -0.34375,0.107422 h -4.61199 q -0.24349,0 -0.350912,-0.107422 -0.100261,-0.114584 -0.100261,-0.379558 0,-0.264975 0.100261,-0.372397 0.107422,-0.114584 0.350912,-0.114584 h 1.124351 V 30.97591 h -0.909507 q -0.24349,0 -0.350912,-0.107422 -0.100261,-0.114584 -0.100261,-0.379558 0,-0.264975 0.100261,-0.372397 0.107422,-0.114584 0.350912,-0.114584 h 1.460941 q 0.24349,0 0.343751,0.114584 0.107422,0.107422 0.107422,0.372397 v 1.446618 q 0.343751,-0.63021 0.830731,-1.102868 0.48698,-0.472657 1.038414,-0.73047 0.551433,-0.257813 1.088544,-0.257813 z"
           style="font-style:normal;font-variant:normal;font-weight:normal;font-stretch:normal;font-family:'Courier Prime';-inkscape-font-specification:'Courier Prime'"
           id="path2362" />
        <path
           d="m 81.807008,29.844397 q 0.981122,0 1.768884,0.444011 0.787763,0.444012 1.231774,1.238935 0.451173,0.787763 0.451173,1.783208 0,0.995445 -0.451173,1.790368 -0.444011,0.787763 -1.231774,1.231774 -0.787762,0.444012 -1.768884,0.444012 -0.981122,0 -1.768884,-0.444012 -0.787762,-0.444011 -1.238935,-1.231774 -0.444012,-0.794923 -0.444012,-1.790368 0,-0.995445 0.444012,-1.783208 0.451173,-0.794923 1.238935,-1.238935 0.787762,-0.444011 1.768884,-0.444011 z m 0,1.059898 q -0.694663,0 -1.224612,0.307944 -0.522788,0.300782 -0.809247,0.852215 -0.286459,0.544272 -0.286459,1.246097 0,0.701824 0.286459,1.253258 0.286459,0.544272 0.809247,0.852215 0.529949,0.300782 1.224612,0.300782 0.694663,0 1.217451,-0.300782 0.529949,-0.307943 0.816408,-0.852215 0.286459,-0.551434 0.286459,-1.253258 0,-0.701825 -0.286459,-1.246097 -0.286459,-0.551433 -0.816408,-0.852215 -0.522788,-0.307944 -1.217451,-0.307944 z"
           style="font-style:normal;font-variant:normal;font-weight:normal;font-stretch:normal;font-family:'Courier Prime';-inkscape-font-specification:'Courier Prime'"
           id="path2364" />
        <path
           d="m 90.787495,27.223297 q 0.24349,0 0.343751,0.114584 0.107422,0.107422 0.107422,0.372396 v 7.934914 h 2.298833 q 0.24349,0 0.343751,0.114584 0.107422,0.107422 0.107422,0.372397 0,0.264974 -0.107422,0.379558 -0.100261,0.107422 -0.343751,0.107422 h -5.614596 q -0.24349,0 -0.350912,-0.107422 -0.100261,-0.114584 -0.100261,-0.379558 0,-0.264975 0.100261,-0.372397 0.107422,-0.114584 0.350912,-0.114584 h 2.241542 v -7.447933 h -1.955083 q -0.24349,0 -0.350912,-0.107422 -0.100261,-0.114584 -0.100261,-0.379559 0,-0.264974 0.100261,-0.372396 0.107422,-0.114584 0.350912,-0.114584 z"
           style="font-style:normal;font-variant:normal;font-weight:normal;font-stretch:normal;font-family:'Courier Prime';-inkscape-font-specification:'Courier Prime'"
           id="path2366" />
      </g>
    </g>
  </g>
</svg>
